<svg xmlns="http://www.w3.org/2000/svg" data-name="Layer 1" viewBox="0 0 96 120" x="0px" y="0px"><title>Artboard 130</title><path d="M89.89551,88.91211A42.99816,42.99816,0,0,1,75.74512,76.1748,18.2089,18.2089,0,0,1,80.1123,51.14844l4.167-3.001a8.04555,8.04555,0,0,0,2.71191-10.67578,7.63271,7.63271,0,0,0-4.7207-3.71777,7.40131,7.40131,0,0,0-5.78125.82129l-3.00977,1.80859a.88933.88933,0,0,1-.92578.00293.81552.81552,0,0,1-.43457-.72168l.00391-.10352A34.04939,34.04939,0,0,0,62.79,10.86816,28.11879,28.11879,0,0,0,42.5625,2C26.84961,2,15,16.40234,15,35.5c0,.39551.00391.85938.01074,1.36523a.88563.88563,0,0,1-.43945.78907.86411.86411,0,0,1-.8916.01367l-.169-.09277a7.40777,7.40777,0,0,0-5.78125-.82129,7.63092,7.63092,0,0,0-4.7207,3.71875,8.04113,8.04113,0,0,0,2.78809,10.7207l8.04394,4.834a8.70667,8.70667,0,0,1,3.65234,4.25C23.47559,75.66113,38.14551,94,74.06152,94c5.07129,0,8.72559.08789,11.39356.15137,1.22168.02929,2.22656.05371,3.05762.05371,2.90332,0,3.68261-.29395,4.083-1.6875C93.08789,90.81055,91.67871,89.97266,89.89551,88.91211ZM32,34.502c-3.03223,0-5.5-2.01855-5.5-4.5s2.46777-4.5,5.5-4.5,5.5,2.01856,5.5,4.5S35.03223,34.502,32,34.502ZM44,57c-3.4209,0-6-3.86914-6-9s2.5791-9,6-9,6,3.86914,6,9S47.4209,57,44,57ZM57,34.502c-3.03223,0-5.5-2.01855-5.5-4.5s2.46777-4.5,5.5-4.5,5.5,2.01856,5.5,4.5S60.03223,34.502,57,34.502Z"/><text x="0" y="111" fill="#000000" font-size="5px" font-weight="bold" font-family="'Helvetica Neue', Helvetica, Arial-Unicode, Arial, Sans-serif">Created by Adi Kurniawan</text><text x="0" y="116" fill="#000000" font-size="5px" font-weight="bold" font-family="'Helvetica Neue', Helvetica, Arial-Unicode, Arial, Sans-serif">from the Noun Project</text></svg>